<?xml version="1.0" encoding="UTF-8"?>
<!DOCTYPE svg PUBLIC "-//W3C//DTD SVG 1.1//EN" "http://www.w3.org/Graphics/SVG/1.1/DTD/svg11.dtd">
<!-- Creator: CorelDRAW 2020 (64-Bit) -->
<svg xmlns="http://www.w3.org/2000/svg" xml:space="preserve" width="565.749mm" height="383.757mm" version="1.1" style="shape-rendering:geometricPrecision; text-rendering:geometricPrecision; image-rendering:optimizeQuality; fill-rule:evenodd; clip-rule:evenodd"
viewBox="0 0 56003.08 37987.89"
 xmlns:xlink="http://www.w3.org/1999/xlink"
 xmlns:xodm="http://www.corel.com/coreldraw/odm/2003">
 <defs>
  <style type="text/css">
   <![CDATA[
    .fil0 {fill:white;fill-rule:nonzero;fill-opacity:0.101961}
   ]]>
  </style>
 </defs>
 <g id="Capa_x0020_1">
  <metadata id="CorelCorpID_0Corel-Layer"/>
  <path class="fil0" d="M5597.35 0l0 3697.79 10475.35 0 0 -3697.79 36.81 0 0 3697.79 10475.35 0 0 -3697.79 36.82 0 0 3697.79 10475.36 0 0 -3697.79 36.81 0 0 3697.79 11121.07 0 0 -3697.79 36.81 0 0 3697.79 7711.33 0 0 36.81 -7711.33 0 0 10148.37 7711.33 0 0 36.81 -7711.33 0 0 10148.35 7711.33 0 0 36.81 -7711.33 0 0 10148.35 7711.33 0 0 36.82 -7711.33 0 0 3697.77 -36.81 0 0 -3697.77 -11121.07 0 0 3697.77 -36.81 0 0 -3697.77 -10475.36 0 0 3697.77 -36.82 0 0 -3697.77 -10475.35 0 0 3697.77 -36.81 0 0 -3697.77 -10475.35 0 0 3697.77 -36.82 0 0 -3697.77 -5560.53 0 0 -36.82 5560.53 0 0 -10148.35 -5560.53 0 0 -36.81 5560.53 0 0 -10148.35 -5560.53 0 0 -36.81 5560.53 0 0 -10148.37 -5560.53 0 0 -36.81 5560.53 0 0 -3697.79 36.82 0zm0 3734.6l0 10148.37 10475.35 0 0 -10148.37 -10475.35 0zm0 10185.18l0 10148.35 10475.35 0 0 -10148.35 -10475.35 0zm0 10185.16l0 10148.35 10475.35 0 0 -10148.35 -10475.35 0zm42657.58 10148.35l0 -10148.35 -11121.07 0 0 10148.35 11121.07 0zm0 -10185.16l0 -10148.35 -11121.07 0 0 10148.35 11121.07 0zm0 -10185.16l0 -10148.37 -11121.07 0 0 10148.37 11121.07 0zm-11157.88 -10148.37l-10475.36 0 0 10148.37 10475.36 0 0 -10148.37zm-10512.18 0l-10475.35 0 0 10148.37 10475.35 0 0 -10148.37zm10512.18 10185.18l-10475.36 0 0 10148.35 10475.36 0 0 -10148.35zm-10512.18 0l-10475.35 0 0 10148.35 10475.35 0 0 -10148.35zm10512.18 10185.16l-10475.36 0 0 10148.35 10475.36 0 0 -10148.35zm-10512.18 0l-10475.35 0 0 10148.35 10475.35 0 0 -10148.35z"/>
 </g>
</svg>
